REM Ripping Tool: trurip

FILE "Adventure Quiz - Capcom World - Hatena no Dai Bouken (1992)(Hudson)(JP).img" BINARY
  TRACK 01 AUDIO
    INDEX 01 00:00:00
  TRACK 02 MODE1/2352
    INDEX 00 00:44:66
    INDEX 01 00:47:71
  TRACK 03 AUDIO
    INDEX 00 01:44:46
    INDEX 01 01:46:46
  TRACK 04 AUDIO
    INDEX 01 02:28:56
  TRACK 05 AUDIO
    INDEX 01 04:16:31
  TRACK 06 AUDIO
    INDEX 01 05:08:65
  TRACK 07 AUDIO
    INDEX 01 07:46:58

REM DISC HASHES
REM CRC32 : c3b10cc6
REM MD5   : 834186272987fcde23f7aca2e26c2415
REM SHA1  : f4d9e828d4b5b58358caf916e73ace7c87d4cb3c

REM Gap Append Method: Prev [crc32]
REM Trk 01: d9db8002
REM Trk 02: 71983e25
REM Trk 03: 10dd8112
REM Trk 04: 3236adb9
REM Trk 05: 341cc45f
REM Trk 06: e3646dc1
REM Trk 07: e3792471

REM Gap Append Method: Prev [md5]
REM Trk 01: d9770cb14e6e504b3779c9f66f6ec82a
REM Trk 02: cdcb0f6d99a5abc814cfefcc8284c622
REM Trk 03: a6281ab0f3a4f4974053baac856b4608
REM Trk 04: 1b73a4d7b04983fe0465a669c88035a1
REM Trk 05: 6cbcfc3e6714e69aeb802c2a519134d1
REM Trk 06: 7dbec70aafa45e8c93391ea803288a9c
REM Trk 07: 1178fbda4620e6453f8e67dcc2214a99

REM Gap Append Method: Prev [sha1]
REM Trk 01: 7f109f34620c1432579f61e493bdf8c804a40d6d
REM Trk 02: 107de44892108226e80ff7dc47d0b17a93f9bd19
REM Trk 03: 45b6ebe613e8c1231f19d9afee8ef2db91f461e9
REM Trk 04: 138701a2dc05a7f5fdd5fca14f899474d58a7669
REM Trk 05: b50143b39c71a9beab7be9248ec19c7ae5e8f84f
REM Trk 06: f78f73880aada3a41ecfdc924a8e1230a141b91c
REM Trk 07: 28ac4cba96e35587de3ddadee0958871b11c5795

REM Gap Append Method: None [crc32]
REM Trk 01: 22144d0f
REM Trk 02: 097a37cc
REM Trk 03: 10dd8112
REM Trk 04: 3236adb9
REM Trk 05: 341cc45f
REM Trk 06: e3646dc1
REM Trk 07: e3792471
REM Gap 02: 9425a9e7
REM Gap 03: 7abe247f

REM Gap Append Method: None [md5]
REM Trk 01: ad1067d0bcc2ffeea540d3b985c51188
REM Trk 02: 5477134ebfc604499a0aef7fc2d29612
REM Trk 03: a6281ab0f3a4f4974053baac856b4608
REM Trk 04: 1b73a4d7b04983fe0465a669c88035a1
REM Trk 05: 6cbcfc3e6714e69aeb802c2a519134d1
REM Trk 06: 7dbec70aafa45e8c93391ea803288a9c
REM Trk 07: 1178fbda4620e6453f8e67dcc2214a99
REM Gap 02: a2633abbc77bcbc330d2d2e49711051b
REM Gap 03: 9df204fbc98bb8965081cb30a89715fc

REM Gap Append Method: None [sha1]
REM Trk 01: 3b472f5e80bbf8259e09f8e4f547567bddb02490
REM Trk 02: 773e940d5cd129d18f8c90adf65486728ffcd0a0
REM Trk 03: 45b6ebe613e8c1231f19d9afee8ef2db91f461e9
REM Trk 04: 138701a2dc05a7f5fdd5fca14f899474d58a7669
REM Trk 05: b50143b39c71a9beab7be9248ec19c7ae5e8f84f
REM Trk 06: f78f73880aada3a41ecfdc924a8e1230a141b91c
REM Trk 07: 28ac4cba96e35587de3ddadee0958871b11c5795
REM Gap 02: 11abf3bdc5b1b27ab93690b7c51efad0f7dd1a7c
REM Gap 03: cbe29e0bd725ef1194f8c47619dd42078e841de2

REM Gap Append Method: Next [crc32]
REM Trk 01: 22144d0f
REM Trk 02: 59cc5f3f
REM Trk 03: 877dde76
REM Trk 04: 3236adb9
REM Trk 05: 341cc45f
REM Trk 06: e3646dc1
REM Trk 07: e3792471

REM Gap Append Method: Next [md5]
REM Trk 01: ad1067d0bcc2ffeea540d3b985c51188
REM Trk 02: 6ece7bd818dead4b8c11acc508407cb6
REM Trk 03: 6812f8a125f960593afcbb5e85229446
REM Trk 04: 1b73a4d7b04983fe0465a669c88035a1
REM Trk 05: 6cbcfc3e6714e69aeb802c2a519134d1
REM Trk 06: 7dbec70aafa45e8c93391ea803288a9c
REM Trk 07: 1178fbda4620e6453f8e67dcc2214a99

REM Gap Append Method: Next [sha1]
REM Trk 01: 3b472f5e80bbf8259e09f8e4f547567bddb02490
REM Trk 02: 6e8cd118b7ce8f4688d99010ca026b1f89ea6282
REM Trk 03: 1da313d7ec15295b54e95e66b0c7326582820f56
REM Trk 04: 138701a2dc05a7f5fdd5fca14f899474d58a7669
REM Trk 05: b50143b39c71a9beab7be9248ec19c7ae5e8f84f
REM Trk 06: f78f73880aada3a41ecfdc924a8e1230a141b91c
REM Trk 07: 28ac4cba96e35587de3ddadee0958871b11c5795

